<svg width="2228" height="1080" viewBox="0 0 2228 1080" fill="none" xmlns="http://www.w3.org/2000/svg">
<rect width="2228" height="1080" fill="white"/>
<rect width="2228" height="1080" fill="url(#paint0_linear_3005_11624)"/>
<g opacity="0.1" clip-path="url(#clip0_3005_11624)">
<rect width="1604" height="430" transform="translate(0 449)" fill="white"/>
<path d="M1593.63 773.312C1572.36 777.992 1557.69 812.447 1539.03 823.136C1473.34 852.065 1543.52 711.892 1528.81 681.575C1489.9 623.778 1411.8 718.596 1401.43 761.988C1390.93 756.764 1406.76 719.109 1405.97 706.487C1417.89 679.491 1418.77 653.824 1382.07 666.869C1372.52 667.02 1361.03 675.324 1360.48 686.104C1350.77 706.094 1345.04 736.895 1342.25 760.841C1344.53 783.337 1342.71 798.526 1322.93 811.813C1234.52 869.005 1232.4 769.115 1235.37 707.634C1259.21 706.426 1315.41 712.768 1334.31 696.31C1338.73 693.925 1339.52 688.912 1342.28 686.104C1351.26 644.795 1305.83 665.027 1280.86 658.927C1441.34 477.687 1227 367.107 1185.32 660.075C1151.78 659.199 1135.22 657.206 1139.83 697.428C1146.99 710.473 1167.7 707.091 1178.5 707.634C1176.38 729.346 1182.69 755.828 1176.23 775.577C1153.24 795.506 1134.64 822.14 1102.28 827.666C1094.33 834.249 1074.26 829.236 1065.89 827.666C1053.69 823.257 1046.78 810.997 1041.98 799.341C1037.41 772.98 1039.95 728.983 1065.89 714.428C1069.8 707.664 1079.81 709.506 1086.36 709.899C1090.09 712.526 1091.88 720.226 1092.06 724.605C1069.92 763.679 1120.48 778.657 1133.01 739.341C1145.62 695.405 1119.33 655.273 1068.16 664.604C1007.41 675.958 977.564 743.447 980.597 799.341C953.937 827.394 896.462 849.377 866.86 815.195C865.525 807.796 902.012 804.686 908.927 798.224C949.479 782.401 976.108 736.442 960.124 695.163C934.708 647.271 872.41 661.252 837.288 689.516C811.993 719.773 798.011 759.482 803.167 799.341C799.8 803.901 783.119 820.419 776.992 823.136C772.807 824.676 766.104 823.71 763.344 827.666C755.579 829.508 744.782 826.82 738.321 825.401C725.825 816.433 716.514 795.144 730.375 783.488C762.707 735.234 795.706 680.457 814.541 624.956C839.442 571.719 857.791 428.919 767.893 451.718C694.282 487.501 687.428 592.343 668.957 657.81C667.471 694.499 657.583 736.079 662.133 776.694C671.777 793.725 638.536 813.504 626.859 823.136C609.298 828.451 587.612 833.705 577.967 812.93C577.724 809.216 578.786 810.695 575.692 808.4C573.023 799.311 571.658 790.705 580.242 783.488C633.895 703.226 684.577 616.954 684.88 517.395C681.058 417.173 593.981 437.435 562.044 511.718C529.53 581.986 518.763 653.673 511.999 729.134C511.484 737.016 514.668 743.417 504.022 741.605C496.622 743.357 487.978 747.343 480.153 746.135C459.892 621.242 313.338 647.724 295.898 760.841C291.804 774.399 304.512 798.134 287.921 805.018C222.864 824.103 131.146 842.945 84.3164 776.694C47.9508 702.229 70.8196 581.714 155.986 546.837C188.075 533.762 234.844 542.761 232.205 584.19C233.297 600.587 222.166 616.38 229.931 631.75C242.548 649.445 271.361 644.765 282.219 627.221C293.472 606.355 291.531 584.523 291.349 560.426C282.553 504.622 215.645 478.291 167.36 492.483C51.5904 503.022 -13.7706 637.034 2.45588 740.458C14.9822 894.038 203.331 898.024 317.493 850.313C340.605 876.162 377.304 882.956 408.483 875.226C468.476 863.902 475.603 793.695 475.603 793.695C489.585 795.718 502.718 790.101 516.549 789.165C519.369 848.2 563.985 896.212 626.859 872.961C644.056 865.653 663.983 849.8 676.903 836.725C681.422 834.581 679.967 841.707 682.605 842.372C710.206 898.568 784.362 879.544 820.212 843.519C861.036 893.344 941.017 886.761 988.544 848.049C990.606 848.32 994.549 843.459 997.643 843.519C1010.35 857.681 1022.57 867.646 1040.86 872.961C1089.97 891.411 1153.45 863.57 1186.45 823.136C1194.91 823.318 1194.91 837.238 1198.97 842.372C1204.31 850.374 1215.26 861.094 1222.84 866.167C1261.91 887.667 1310.28 879.483 1343.4 850.313C1349.08 856.624 1350.11 870.756 1359.33 875.226C1372.76 878.155 1382.77 881.657 1394.6 869.549C1415.89 825.612 1418.83 765.37 1461.69 732.546C1484.8 766.216 1416.2 851.702 1488.99 877.49C1536.06 888.15 1636.42 820.237 1593.63 773.312ZM1288.81 524.19C1293.85 530.169 1297.88 558.855 1292.24 564.955C1289.14 596.541 1266.61 630.089 1242.19 651.016C1240.4 630.059 1261.57 512.624 1288.81 524.19ZM355.042 766.518C356.528 739.522 367.962 711.952 398.262 712.164C396.442 737.378 399.293 764.645 422.132 780.106C426.105 782.643 426.378 787.987 425.559 792.547C400.506 858.587 345.791 829.991 355.042 766.518ZM577.967 644.221C577.391 624.473 611.542 452.171 637.11 504.924C646.391 580.053 612.361 661.947 571.143 723.487C570.293 701.051 572.113 665.117 577.967 644.221ZM721.276 698.575C723.702 656.723 738.746 502.116 782.694 494.748C805.502 571.659 759.006 661.433 719.001 728.017C720.639 719.139 715.362 705.339 721.276 698.575ZM904.378 709.899C937.771 738.676 887.09 772.134 857.761 775.577C859.459 749.245 869.317 704.464 904.378 709.899Z" fill="#1F2029"/>
</g>
<rect width="2228" height="1080" fill="url(#paint1_linear_3005_11624)"/>
<defs>
<linearGradient id="paint0_linear_3005_11624" x1="0" y1="0" x2="134.038" y2="1296.49" gradientUnits="userSpaceOnUse">
<stop stop-color="white" stop-opacity="0"/>
<stop offset="1" stop-color="#1F2029" stop-opacity="0.22"/>
</linearGradient>
<linearGradient id="paint1_linear_3005_11624" x1="2228" y1="510.074" x2="2043.51" y2="1467.07" gradientUnits="userSpaceOnUse">
<stop stop-color="white" stop-opacity="0"/>
<stop offset="1" stop-color="white"/>
</linearGradient>
<clipPath id="clip0_3005_11624">
<rect width="1604" height="430" fill="white" transform="translate(0 449)"/>
</clipPath>
</defs>
</svg>