<svg width="1296" height="430" viewBox="0 0 1296 430" fill="none" xmlns="http://www.w3.org/2000/svg">
<path d="M1285.63 324.312C1264.36 328.992 1249.69 363.447 1231.03 374.136C1165.34 403.065 1235.52 262.892 1220.81 232.574C1181.9 174.778 1103.8 269.596 1093.43 312.988C1082.93 307.764 1098.76 270.109 1097.97 257.487C1109.89 230.491 1110.77 204.824 1074.07 217.869C1064.52 218.02 1053.03 226.324 1052.48 237.104C1042.77 257.094 1037.04 287.895 1034.25 311.841C1036.53 334.337 1034.71 349.526 1014.93 362.813C926.52 420.005 924.396 320.114 927.369 258.634C951.208 257.426 1007.41 263.768 1026.31 247.31C1030.73 244.925 1031.52 239.912 1034.28 237.104C1043.26 195.795 997.825 216.027 972.864 209.927C1133.34 28.6868 918.998 -81.8933 877.324 211.074C843.779 210.199 827.219 208.206 831.829 248.428C838.987 261.473 859.703 258.091 870.5 258.634C868.377 280.346 874.686 306.828 868.225 326.577C845.235 346.506 826.643 373.14 794.281 378.666C786.334 385.249 766.256 380.236 757.885 378.666C745.692 374.257 738.777 361.997 733.985 350.341C729.405 323.98 731.953 279.983 757.885 265.428C761.798 258.664 771.807 260.506 778.358 260.899C782.088 263.526 783.878 271.226 784.06 275.605C761.919 314.679 812.479 329.657 825.005 290.341C837.622 246.405 811.326 206.273 760.16 215.604C699.409 226.958 669.564 294.447 672.597 350.341C645.937 378.394 588.462 400.377 558.86 366.195C557.525 358.796 594.012 355.686 600.927 349.224C641.479 333.401 668.108 287.442 652.124 246.163C626.708 198.271 564.41 212.252 529.288 240.516C503.993 270.773 490.011 310.482 495.167 350.341C491.8 354.901 475.119 371.419 468.992 374.136C464.807 375.676 458.104 374.71 455.344 378.666C447.579 380.508 436.782 377.82 430.321 376.401C417.825 367.433 408.514 346.144 422.375 334.488C454.707 286.234 487.706 231.457 506.541 175.956C531.442 122.719 549.791 -20.0808 459.893 2.7177C386.282 38.5007 379.428 143.343 360.957 208.81C359.471 245.499 349.583 287.079 354.133 327.694C363.777 344.725 330.536 364.504 318.859 374.136C301.298 379.451 279.612 384.705 269.967 363.93C269.724 360.216 270.786 361.695 267.692 359.4C265.023 350.311 263.658 341.705 272.242 334.488C325.895 254.225 376.577 167.954 376.88 68.3954C373.058 -31.8272 285.981 -11.5653 254.044 62.7184C221.53 132.986 210.763 204.673 203.999 280.134C203.484 288.015 206.668 294.417 196.022 292.605C188.622 294.357 179.978 298.343 172.153 297.135C151.892 172.242 5.33798 198.724 -12.1017 311.841C-16.1963 325.399 -3.48801 349.133 -20.0785 356.018C-85.1363 375.103 -176.854 393.945 -223.684 327.694C-260.049 253.229 -237.18 132.714 -152.014 97.8371C-119.925 84.762 -73.1559 93.7605 -75.7947 135.19C-74.7028 151.587 -85.8339 167.38 -78.0694 182.75C-65.4521 200.445 -36.6387 195.765 -25.7805 178.221C-14.5281 157.355 -16.4692 135.522 -16.6512 111.426C-25.4469 55.6222 -92.3548 29.2907 -140.64 43.4831C-256.41 54.0218 -321.771 188.034 -305.544 291.458C-293.018 445.038 -104.669 449.024 9.49319 401.313C32.6046 427.162 69.3038 433.956 100.483 426.225C160.476 414.902 167.603 344.695 167.603 344.695C181.585 346.718 194.718 341.101 208.549 340.165C211.369 399.199 255.985 447.212 318.859 423.961C336.056 416.653 355.983 400.8 368.903 387.725C373.422 385.581 371.967 392.707 374.605 393.372C402.206 449.567 476.362 430.544 512.212 394.519C553.036 444.343 633.017 437.761 680.544 399.048C682.606 399.32 686.549 394.459 689.643 394.519C702.351 408.681 714.574 418.646 732.863 423.961C781.967 442.411 845.448 414.57 878.447 374.136C886.909 374.317 886.909 388.238 890.973 393.372C896.311 401.374 907.26 412.093 914.843 417.166C953.908 438.666 1002.28 430.483 1035.4 401.313C1041.08 407.624 1042.11 421.756 1051.33 426.225C1064.76 429.155 1074.77 432.657 1086.6 420.548C1107.89 376.612 1110.83 316.37 1153.69 283.546C1176.8 317.216 1108.2 402.702 1180.99 428.49C1228.06 439.15 1328.42 371.237 1285.63 324.312ZM980.81 75.1896C985.845 81.1685 989.879 109.855 984.238 115.955C981.144 147.541 958.609 181.089 934.193 202.015C932.404 181.059 953.574 63.6243 980.81 75.1896ZM47.0417 317.518C48.5279 290.522 59.9622 262.952 90.2619 263.164C88.442 288.378 91.2931 315.645 114.132 331.106C118.105 333.643 118.378 338.987 117.559 343.547C92.5063 409.587 37.791 380.991 47.0417 317.518ZM269.967 195.221C269.391 175.473 303.542 3.17065 329.11 55.9242C338.391 131.053 304.361 212.947 263.143 274.487C262.293 252.051 264.113 216.117 269.967 195.221ZM413.276 249.575C415.702 207.723 430.746 53.1159 474.694 45.7479C497.502 122.659 451.006 212.433 411.001 279.017C412.639 270.139 407.362 256.339 413.276 249.575ZM596.378 260.899C629.771 289.676 579.09 323.134 549.761 326.577C551.459 300.245 561.317 255.463 596.378 260.899Z" fill="#1F2029"/>
</svg>
